<?xml version="1.0" encoding="UTF-8"?>
<svg id="Logo" xmlns="http://www.w3.org/2000/svg" viewBox="0 0 720 172.8">
  <defs>
    <style>
      .cls-1 {
        fill: #fff;
      }

      .cls-2 {
        fill: none;
      }
    </style>
  </defs>
  <path class="cls-1" d="M222.97,14.4l-63.12,63.12,8.88,8.88-8.88,8.88,63.12,63.12,72-72L222.97,14.4ZM276.73,86.17l.23.23-.23.23v-.47ZM270.6,92.76l-41.5,41.5v-41.5h41.5ZM229.1,80.04v-41.51l41.5,41.51h-41.5ZM216.37,39v94.8l-47.4-47.4,47.4-47.4Z"/>
  <path class="cls-1" d="M159.85,77.52L96.73,14.4,24.73,86.4l72,72,63.12-63.12,8.88-8.88-8.88-8.88ZM90.37,134.04l-41.27-41.27h41.27v41.27ZM90.37,80.04h-41.27l41.27-41.27v41.27ZM103.1,134.03V38.76l47.63,47.64-47.63,47.63Z"/>
  <g>
    <rect class="cls-2" x="318.97" y="30.17" width="386.12" height="108"/>
    <path class="cls-1" d="M381.83,115.2c-6.56,3.78-14.72,5.67-24.47,5.67-10.81,0-19.34-2.99-25.57-8.98-6.23-5.98-9.35-14.23-9.35-24.73s3.41-19.17,10.22-25.83,15.88-9.98,27.19-9.98c7.12,0,13.41.98,18.84,2.95v14.2c-5.19-3-11.53-4.5-19.03-4.5-6.28,0-11.4,2.04-15.35,6.12s-5.93,9.52-5.93,16.34,1.77,12.25,5.32,16.03c3.55,3.78,8.34,5.67,14.37,5.67,3.62,0,6.5-.52,8.62-1.55v-13.12h-13.45v-12.09h28.59v33.8Z"/>
    <path class="cls-1" d="M436.58,99.92h-31.31c.5,6.97,4.89,10.45,13.17,10.45,5.28,0,9.92-1.25,13.92-3.75v10.69c-4.44,2.38-10.2,3.56-17.3,3.56-7.75,0-13.77-2.15-18.05-6.45-4.28-4.3-6.42-10.29-6.42-17.98s2.31-14.28,6.94-18.94c4.62-4.66,10.31-6.98,17.06-6.98s12.41,2.08,16.24,6.23c3.83,4.16,5.74,9.8,5.74,16.92v6.23ZM422.85,90.82c0-6.87-2.78-10.31-8.34-10.31-2.38,0-4.43.98-6.16,2.95s-2.79,4.42-3.16,7.36h17.67Z"/>
    <path class="cls-1" d="M491.76,119.7h-14.77v-26.67c0-7.44-2.66-11.16-7.97-11.16-2.56,0-4.67.98-6.33,2.95s-2.48,4.47-2.48,7.5v27.38h-14.81v-48h14.81v7.59h.19c3.53-5.84,8.67-8.77,15.42-8.77,10.62,0,15.94,6.59,15.94,19.78v29.39Z"/>
    <path class="cls-1" d="M500.33,118.43v-12c2.44,1.47,4.87,2.56,7.29,3.28,2.42.72,4.71,1.08,6.87,1.08,2.62,0,4.7-.36,6.21-1.08,1.52-.72,2.27-1.81,2.27-3.28,0-.94-.34-1.72-1.03-2.34-.69-.62-1.57-1.17-2.65-1.64s-2.26-.89-3.54-1.27-2.52-.8-3.7-1.27c-1.91-.72-3.59-1.49-5.04-2.32-1.45-.83-2.67-1.79-3.66-2.88-.98-1.09-1.73-2.36-2.25-3.8-.52-1.44-.77-3.14-.77-5.11,0-2.69.59-5,1.76-6.94,1.17-1.94,2.73-3.52,4.69-4.76,1.95-1.23,4.19-2.14,6.7-2.72,2.52-.58,5.13-.87,7.85-.87,2.12,0,4.28.16,6.47.49s4.34.8,6.47,1.43v11.44c-1.88-1.09-3.88-1.91-6.02-2.46-2.14-.55-4.24-.82-6.3-.82-.97,0-1.88.09-2.74.26-.86.17-1.62.42-2.27.75s-1.17.75-1.55,1.27-.56,1.1-.56,1.76c0,.88.28,1.62.84,2.25.56.63,1.3,1.16,2.2,1.62.91.45,1.91.86,3.02,1.22,1.11.36,2.21.73,3.3,1.1,1.97.69,3.75,1.44,5.34,2.25,1.59.81,2.96,1.77,4.1,2.86,1.14,1.09,2.02,2.38,2.62,3.84.61,1.47.91,3.22.91,5.25,0,2.84-.62,5.27-1.85,7.29s-2.88,3.66-4.92,4.92-4.41,2.19-7.08,2.77-5.45.87-8.32.87c-5.28,0-10.17-.81-14.67-2.44Z"/>
    <path class="cls-1" d="M591.41,71.7l-19.5,51.84c-4.69,12.47-11.75,18.7-21.19,18.7-3.59,0-6.55-.41-8.86-1.22v-11.81c1.97,1.16,4.11,1.73,6.42,1.73,3.81,0,6.47-1.8,7.97-5.39l2.53-5.95-19.5-47.91h16.41l8.95,29.2c.56,1.81,1,3.95,1.31,6.42h.19c.28-1.81.8-3.92,1.55-6.33l9.05-29.3h14.67Z"/>
    <path class="cls-1" d="M643.72,119.7h-14.77v-26.67c0-7.44-2.66-11.16-7.97-11.16-2.56,0-4.67.98-6.33,2.95s-2.48,4.47-2.48,7.5v27.38h-14.81v-48h14.81v7.59h.19c3.53-5.84,8.67-8.77,15.42-8.77,10.62,0,15.94,6.59,15.94,19.78v29.39Z"/>
  </g>
</svg>