<?xml version="1.0" encoding="UTF-8"?>
<svg id="Logo" xmlns="http://www.w3.org/2000/svg" viewBox="0 0 288 288">
  <defs>
    <style>
      .cls-1 {
        fill: #263171;
      }

      .cls-2 {
        fill: none;
      }

      .cls-3 {
        fill: #743694;
      }
    </style>
  </defs>
  <path class="cls-3" d="M207.23,14.4l-63.12,63.12,8.88,8.88-8.88,8.88,63.12,63.12,72-72L207.23,14.4ZM261,86.17l.23.23-.23.23v-.47ZM254.87,92.76l-41.5,41.5v-41.5h41.5ZM213.37,80.04v-41.51l41.5,41.51h-41.5ZM200.63,39v94.8l-47.4-47.4,47.4-47.4Z"/>
  <path class="cls-1" d="M144.12,77.52L81,14.4,9,86.4l72,72,63.12-63.12,8.88-8.88-8.88-8.88ZM74.63,134.04l-41.27-41.27h41.27v41.27ZM74.63,80.04h-41.27l41.27-41.27v41.27ZM87.37,134.03V38.76l47.63,47.64-47.63,47.63Z"/>
  <g>
    <rect class="cls-2" y="180" width="288" height="80.56"/>
    <path class="cls-1" d="M92.87,213.28c-3.28,1.89-7.36,2.84-12.23,2.84-5.41,0-9.67-1.5-12.79-4.49s-4.68-7.11-4.68-12.36,1.7-9.59,5.11-12.91,7.94-4.99,13.59-4.99c3.56,0,6.7.49,9.42,1.48v7.1c-2.59-1.5-5.77-2.25-9.52-2.25-3.14,0-5.7,1.02-7.68,3.06s-2.96,4.76-2.96,8.17.89,6.12,2.66,8.02,4.17,2.84,7.18,2.84c1.81,0,3.25-.26,4.31-.77v-6.56h-6.73v-6.05h14.3v16.9Z"/>
    <path class="cls-1" d="M120.25,205.64h-15.66c.25,3.48,2.45,5.23,6.59,5.23,2.64,0,4.96-.62,6.96-1.88v5.34c-2.22,1.19-5.1,1.78-8.65,1.78-3.88,0-6.88-1.07-9.02-3.22s-3.21-5.14-3.21-8.99,1.16-7.14,3.47-9.47,5.16-3.49,8.53-3.49,6.21,1.04,8.12,3.12,2.87,4.9,2.87,8.46v3.12ZM113.38,201.09c0-3.44-1.39-5.16-4.17-5.16-1.19,0-2.21.49-3.08,1.48s-1.39,2.21-1.58,3.68h8.84Z"/>
    <path class="cls-1" d="M147.83,215.53h-7.38v-13.34c0-3.72-1.33-5.58-3.98-5.58-1.28,0-2.34.49-3.16,1.48s-1.24,2.23-1.24,3.75v13.69h-7.41v-24h7.41v3.8h.09c1.77-2.92,4.34-4.38,7.71-4.38,5.31,0,7.97,3.3,7.97,9.89v14.7Z"/>
    <path class="cls-1" d="M152.12,214.9v-6c1.22.73,2.43,1.28,3.64,1.64s2.36.54,3.43.54c1.31,0,2.35-.18,3.11-.54s1.14-.91,1.14-1.64c0-.47-.17-.86-.52-1.17s-.79-.59-1.32-.82-1.13-.45-1.77-.63-1.26-.4-1.85-.63c-.95-.36-1.79-.75-2.52-1.16s-1.34-.89-1.83-1.44-.87-1.18-1.12-1.9-.39-1.57-.39-2.55c0-1.34.29-2.5.88-3.47s1.37-1.76,2.34-2.38,2.09-1.07,3.35-1.36,2.57-.43,3.93-.43c1.06,0,2.14.08,3.23.25s2.17.4,3.23.71v5.72c-.94-.55-1.94-.96-3.01-1.23s-2.12-.41-3.15-.41c-.48,0-.94.04-1.37.13s-.81.21-1.14.38-.59.38-.77.63-.28.55-.28.88c0,.44.14.81.42,1.12s.65.58,1.1.81.96.43,1.51.61,1.11.36,1.65.55c.98.34,1.88.72,2.67,1.12s1.48.88,2.05,1.43,1.01,1.19,1.31,1.92.46,1.61.46,2.62c0,1.42-.31,2.64-.93,3.64s-1.44,1.83-2.46,2.46-2.2,1.09-3.54,1.38-2.72.43-4.16.43c-2.64,0-5.09-.41-7.34-1.22Z"/>
    <path class="cls-1" d="M197.66,191.53l-9.75,25.92c-2.34,6.23-5.88,9.35-10.59,9.35-1.8,0-3.27-.2-4.43-.61v-5.91c.98.58,2.05.87,3.21.87,1.91,0,3.23-.9,3.98-2.7l1.27-2.98-9.75-23.95h8.2l4.48,14.6c.28.91.5,1.98.66,3.21h.09c.14-.91.4-1.96.77-3.16l4.52-14.65h7.34Z"/>
    <path class="cls-1" d="M223.82,215.53h-7.38v-13.34c0-3.72-1.33-5.58-3.98-5.58-1.28,0-2.34.49-3.16,1.48s-1.24,2.23-1.24,3.75v13.69h-7.41v-24h7.41v3.8h.09c1.77-2.92,4.34-4.38,7.71-4.38,5.31,0,7.97,3.3,7.97,9.89v14.7Z"/>
  </g>
  <g>
    <rect class="cls-2" y="230.4" width="288" height="80.56"/>
    <path class="cls-3" d="M20.19,246.56l.28-.28v-.19c0-.06.08-.25.23-.57s.3-.54.43-.64.23-.24.29-.39c.06-.15.2-.24.42-.27-.09-.16-.14-.28-.14-.38l-.09-.45s.05-.09.14-.19l.14-.19c.08-.06.18-.14.3-.23.13-.09.2-.22.21-.39.01-.16.13-.39.34-.68s.37-.43.48-.43.2-.03.28-.09.15-.09.21-.09c.09,0,.18.07.25.21s.12.21.15.21c.12,0,.19-.08.19-.23,0-.08-.07-.14-.22-.18-.15-.04-.25-.12-.29-.25s-.09-.23-.14-.32-.07-.14-.07-.18c0-.12.07-.27.22-.42s.29-.23.41-.23.25-.07.38-.21c-.19-.09-.28-.2-.28-.33.19-.19.37-.46.55-.83s.38-.55.6-.55c.03,0,.11.03.23.09.03-.06.12-.27.26-.63l-.17-.47c.3-.42.51-.66.63-.73l.19-.14c.09-.44.46-.8,1.1-1.1.83-.88,1.33-1.31,1.5-1.31.03,0,.09.05.19.16l.23-.07c.09,0,.14.05.14.16-.5.47-.75.72-.75.75h.02s.11-.08.18-.14.19-.17.36-.33c0,.06.03.09.09.09.17-.22.26-.45.26-.68,0-.03-.09-.09-.26-.19l-.05-.14c0-.09.28-.38.83-.87.56-.48,1.16-.91,1.82-1.29l.23-.28c.06-.08.15-.12.25-.12.12,0,.31.09.55.26l.09-.05c-.03-.06-.05-.18-.05-.35,0-.09.06-.16.18-.19.15-.23.49-.44,1-.61s.86-.34,1.05-.49l.49-.19c.25-.03.46-.08.64-.14s.39-.09.64-.09c.05,0,.17-.05.38-.15s.35-.15.45-.15.27.1.52.3c0,.03.03.05.09.05l.3-.21h.05c.22.2.45.4.7.59.66.48.98,1.07.98,1.76l-.12.98.05.82c0,.27-.12.5-.38.7-.11.7-.25,1.21-.42,1.51s-.31.72-.41,1.25-.56,1.27-1.37,2.23c0,.03-.1.17-.29.41s-.43.67-.71,1.28c-.44.47-.71.84-.83,1.11s-.34.48-.67.62h-.09l.09.52c-.59.97-1.18,1.45-1.75,1.45-.35,0-.7-.16-1.05-.48s-.52-.64-.52-.97c0-.77.89-1.7,2.66-2.79.03,0,.09.02.19.05l.19-.33c-.06-.12-.09-.2-.09-.23,0-.22.24-.48.73-.77.22-.45.45-.7.7-.73l.91-1.43.09-.23v-.35c0-.06.16-.2.49-.42l.05-.09v-.49c0-.19.12-.34.38-.47.06-.08.13-.33.2-.76s.2-.82.39-1.16c-.06-.73-.15-1.18-.27-1.35s-.3-.25-.55-.25c-.22,0-.59.14-1.1.41s-.85.41-1.01.41c-.06,0-.12-.02-.19-.07s-.12-.07-.19-.07c-.08,0-.16.08-.23.25s-.17.26-.28.29-.25.12-.41.26-.39.27-.67.4l-.37.49-.4.28c-.05.33-.25.49-.61.49-.08,0-.21.19-.4.56l-.19.19h-.37l-.05.21v.23c0,.09-.05.17-.16.23l-.89.96-.16.09h-.19l-.09.05c-.05.56-.2.85-.47.87,0,.2-.23.48-.68.82l-.19.23h-.3l-.05.05c.11.09.16.16.16.19,0,.09-.09.27-.27.53s-.32.37-.41.34c-.06.44-.21.82-.45,1.15l-.19.35c-.09.16-.19.28-.28.38v.19c0,.41-.38.77-1.15,1.1l.14.59c-.06.12-.19.31-.38.56l-.21.45c-.09.28-.2.45-.33.52-.05.14-.12.27-.22.38s-.15.2-.15.26l.05.33c-.23.42-.37.72-.42.9s-.13.35-.23.5c-.11.16-.2.33-.26.53s-.21.4-.45.62c-.19.67-.28,1.04-.28,1.1l-.33.28s-.05.15-.14.35l-.05.19v.33c0,.2-.2.45-.59.73.19.06.28.19.28.38,0,.36-.07.63-.21.82s-.24.38-.3.57-.18.45-.35.76c.17.11.26.24.26.4l-.21,1.57.16.45s-.13.08-.3.14c.03.19.12.35.28.48s.4.52.73,1.16c.06.06.2.09.4.09.19,0,.33-.02.42-.05s.3-.07.62-.11.66-.18,1.02-.43h.38c.38,0,.64-.14.79-.41s.3-.41.46-.41c.14,0,.37-.06.68-.19h.14c.06-.12.12-.21.19-.26s.19-.19.39-.43.37-.36.53-.36c.55-.36.97-.68,1.27-.96.03-.03.12-.05.26-.07s.25-.09.33-.23c.08-.14.43-.47,1.05-.98.62-.52,1-.93,1.12-1.23s.27-.46.45-.46c.06,0,.17.02.33.05h.05c.06,0,.11-.07.14-.21s.35-.39.96-.75c.01-.31.26-.59.73-.82l.82-.8.38.05c.09-.06.15-.2.16-.42s.14-.37.38-.45h.19l.14-.09c.11-.52.29-.77.54-.77h.19c.12,0,.19-.15.19-.45,0-.28.34-.5,1.01-.66l.47-.23s.1-.07.21-.07c.41,0,.61.32.61.96,0,.17-.06.3-.19.4l-.33.28-.05.4-.84.77c-.14.11-.22.25-.23.43s-.06.27-.14.27c-.05.08-.14.14-.29.2s-.25.14-.29.25c-.22.52-.56.83-1.03.94-.27.61-.52.97-.75,1.09s-.37.24-.4.36c-.06.41-.27.59-.63.56-.58.56-.95,1-1.1,1.31,0,.03-.02.05-.05.05l-.33-.05s-.11.12-.25.28-.31.24-.54.26c-.23.02-.39.15-.48.41s-.18.42-.26.48c-.08.06-.16.17-.26.32s-.19.22-.28.22c-.14,0-.24-.13-.3-.4-.12.06-.25.18-.38.35l.14.33c0,.06-.03.12-.09.16s-.18.2-.34.46-.55.43-1.16.53c-.03,0-.09.11-.19.32s-.31.33-.66.36c-.33.48-.6.73-.82.73l-1.01.33c-.17,0-.32-.02-.45-.05-.09.22-.2.33-.33.33l-.33.09c-.11.16-.24.23-.4.23-.22,0-.33-.06-.33-.19,0-.03.02-.08.05-.14v-.09c0-.09-.03-.14-.09-.14,0,.67-.18,1.01-.54,1.01-.06,0-.23-.06-.52-.19h-.05l-.45.23s-.09.05-.19.05c-.58,0-1.16-.18-1.73-.54h-.23c-.48,0-.85-.28-1.1-.84l-.05-.09c-.38-.09-.58-.34-.63-.73-.06-.09-.22-.26-.47-.49-.03-.22-.1-.42-.21-.6-.11-.18-.16-.29-.16-.32l-.54-1.76c-.06-.52-.09-.94-.09-1.27l-.05-.19v-.14l.09-.63-.05-.23c0-.12.14-.59.43-1.38.29-.8.47-1.39.55-1.78.08-.39.15-.63.21-.73l.68-1.83Z"/>
    <path class="cls-3" d="M43.83,247.88l.35-.09.14-.3c.77-.45,1.31-.88,1.64-1.29.03-.06.1-.12.21-.19.11-.06.23-.17.35-.33.58-.58,1.27-.87,2.06-.87.94,0,1.44.57,1.5,1.71l.14.35c.12.22.3.66.53,1.34.23.67.34,1.09.34,1.24,0,.42-.13.84-.4,1.27-.22.11-.74.7-1.57,1.76l-.23.16c-.13.28-.29.56-.49.84-.31.11-.47.23-.47.35v.42s-.04.09-.11.19-.17.27-.29.54l-.19.28c-.06.06-.13.19-.19.39-.06.2-.15.37-.27.53s-.18.28-.18.38c0,.23.3.35.91.35.03,0,.15-.05.35-.14l.33.09s.11-.05.23-.15c.12-.1.32-.18.57-.25s.48-.16.68-.28c.19-.12.43-.23.7-.33s.54-.25.79-.46.5-.36.74-.46.47-.24.68-.43.45-.38.71-.55.69-.55,1.27-1.12c.38-.3.63-.46.77-.49.03,0,.17-.21.41-.62s.52-.62.83-.62c.33,0,.49.16.49.47,0,.17-.08.34-.23.49v.14l.05.38s.05.12.05.21c0,.06-.06.16-.18.28s-.2.29-.25.48-.2.32-.45.39c-.09.34-.21.54-.36.59s-.36.2-.62.47-.64.58-1.12.94-.82.64-1,.83c-.18.2-.3.29-.36.29-.03,0-.09-.03-.19-.09s-.16-.09-.19-.09c-.09,0-.16.11-.19.33l-.09.23c-.2.12-.32.19-.35.19l-.14-.05h-.09c-.19,0-.28.07-.28.21l.14.23v.05c0,.22-.12.33-.38.33-.17,0-.67.29-1.5.87l-.68.14-.56.3c-.19-.11-.3-.16-.35-.16l-.38.12-.68.05s-.3-.16-.86-.47c-.55-.31-.89-.62-1-.94s-.25-.63-.42-.95-.26-.54-.26-.67c0-.75.06-1.29.19-1.61s.2-.56.23-.71.12-.32.27-.5.27-.47.36-.88c.45-.91.77-1.46.94-1.66s.3-.45.4-.75l.3-.42s.08-.15.14-.36.14-.33.23-.36c.12-.22.19-.36.19-.42,0-.45-.2-.68-.61-.68-.08,0-.16.08-.26.25s-.31.32-.64.48-.54.27-.62.35-.25.18-.5.29-.48.3-.67.55l-.4.19c-.13.3-.24.46-.33.49s-.38.11-.87.23c-.03.02-.11.11-.23.28s-.3.26-.54.26c-.19.19-.38.41-.56.66-.06,0-.23.06-.49.19l-.47.12c-.12.09-.26.24-.41.45s-.43.3-.83.3c-.23,0-.35-.19-.35-.56,0-.77.27-1.38.81-1.83s.93-.7,1.18-.73.41-.12.47-.28.21-.29.46-.39.52-.33.84-.68.67-.59,1.04-.71l.28-.33Z"/>
    <path class="cls-3" d="M59.8,249.71l.49-.4c.37-.03.58-.23.61-.59s.29-.67.77-.94l.28-.4c.23-.23.88-.54,1.92-.91.27-.16.45-.3.54-.42.03-.03.06-.05.09-.05l.38.09c.2,0,.46-.05.78-.16s.63-.16.92-.16l.98-.05c.06,0,.19.05.39.14s.43.14.71.14c.34,0,.66.16.95.47s.43.6.43.87c0,.48-.25.98-.75,1.48-.5.5-.9.78-1.19.84-.27.27-.47.43-.61.5s-.29.18-.43.33c-.15.15-.27.22-.36.22-.06,0-.11-.02-.14-.06-.03-.04-.08-.06-.14-.06-.25,0-.52.3-.82.91l-.42-.05c-.27.17-.44.36-.52.56s-.24.3-.49.3c-.58.58-.97.87-1.17.87-.03,0-.14-.03-.33-.09-.12.16-.19.32-.19.49,0,.19-.12.3-.37.33l-.3.28-.23-.05-.47.49c-.23,0-.48.08-.72.23-.03.19-.08.43-.14.71-.06.29-.09.45-.09.48,0,.45.41.68,1.24.68l1.12-.16c.3,0,.57-.08.83-.23s.54-.23.83-.23c.09,0,.23-.03.42-.09l.23.09c.11-.23.31-.45.61-.63s.53-.28.7-.28l.23-.14c.06-.19.16-.31.28-.38l.19-.16c.12-.12.24-.19.35-.19h.33l.09-.05c.19-.41.45-.64.79-.71.34-.07.55-.18.63-.34s.24-.25.46-.28.4-.14.55-.32.33-.35.55-.5.37-.27.46-.35.16-.12.22-.12c.09,0,.14.07.14.21s.03.21.09.21.09-.03.09-.09-.02-.14-.05-.23v-.16c0-.23.12-.39.38-.47l1.05-.68c.03-.33.12-.52.27-.57s.26-.12.34-.19.16-.11.26-.11c.2,0,.3.12.3.35l-.12.61.12.63c0,.09-.07.22-.22.39-.15.16-.26.41-.34.75s-.18.52-.3.55h-.14c-.28.3-.5.47-.67.53s-.29.15-.39.29l-.8.91c-.16.16-.29.3-.4.42s-.2.19-.26.19l-.19-.19s-.03-.05-.09-.05c-.16,0-.25.09-.29.28s-.12.35-.25.49c-.47.22-.77.42-.92.61l-.14.05h-.42c-.2,0-.34.15-.42.46-.08.3-.3.48-.67.53s-.63.14-.79.28c-.03.03-.1.06-.21.09s-.33.16-.66.38l-1.97.7c-.16.08-.26.12-.3.12l-.66.09c-.09,0-.19-.06-.28-.19s-.16-.19-.19-.19l-.42.14c-.31.09-.61.14-.89.14-.16,0-.33-.05-.52-.16s-.34-.19-.45-.23c-.45,0-.77-.35-.96-1.05l-.28.05c-.06,0-.27-.55-.63-1.66-.09-.12-.24-.21-.45-.27-.2-.05-.3-.21-.3-.46,0-.7.15-1.18.46-1.42s.47-.43.5-.55l.33-1.22c.06-.05.14-.2.23-.47l.54-.98c.06-.11.2-.38.42-.82ZM64.76,248.3l-.28.14c-.06.03-.25.17-.55.41s-.6.44-.89.59-.59.54-.89,1.16-.46.98-.46,1.08.05.14.14.14l.8-.35c.3-.14.57-.32.83-.54s.63-.48,1.11-.8l.19-.19c.03-.06.18-.18.43-.34s.45-.32.57-.48l.23-.09c.27-.42.54-.68.81-.77s.41-.19.41-.28c0-.19-.15-.28-.45-.28-.12,0-.31.08-.56.23h-.54c-.06,0-.23.09-.52.28l-.4.09Z"/>
    <path class="cls-3" d="M89.94,253.2l.37-.33c.23,0,.37-.11.42-.32s.21-.38.5-.5.56-.38.81-.76.51-.57.77-.57c.09,0,.2.08.33.23.12.16.19.28.19.38,0,.52-.16,1.05-.47,1.59l-.09.66-.16.3c-.23.12-.39.26-.46.4s-.25.31-.55.52l-.23.33c-.34.11-.57.29-.69.54s-.28.39-.49.42-.44.19-.69.47c-.16.08-.34.15-.56.21l-.05.23c-.16.16-.4.28-.74.38s-.58.18-.75.27-.28.13-.34.13c-.3,0-.57-.06-.82-.18s-.51-.19-.77-.22c-.09-.09-.15-.2-.16-.3s-.09-.25-.23-.43-.21-.43-.21-.74l.09-.45c0-.06-.04-.14-.12-.23s-.12-.17-.12-.23.02-.11.05-.14.05-.08.05-.14c0-.08-.02-.16-.05-.26s-.05-.17-.05-.23l.14-1.15c0-.09-.03-.14-.09-.14s-.18.08-.34.23-.36.23-.57.23c-.12.09-.23.29-.31.59-.12.16-.28.3-.47.42l-.09.14c-.03.11-.15.2-.35.27s-.34.16-.42.27l-.23.23-.45-.05s-.12.17-.26.41-.32.44-.54.6l-1.78,1.45c-.19.12-.46.28-.82.47l-.14.14c-1.25.83-2.13,1.24-2.65,1.24-.42,0-.91-.12-1.48-.35s-.87-.52-.91-.84l-.23-.96c-.14-.22-.21-.52-.21-.91,0-.19.02-.31.05-.38v-.14l-.05-.77c0-.19.15-.28.45-.28l-.05-.63c0-.06.14-.31.41-.74s.46-.68.55-.74l.23-.3c-.02-.19.09-.39.33-.6s.42-.43.56-.64.41-.46.8-.73l.7-.7c.55-.55,1.14-.98,1.78-1.31.09-.03.29-.19.58-.47.29-.28.62-.49.99-.62.37-.13.73-.3,1.08-.5.35-.2.63-.3.83-.3h.19c.06,0,.48-.2,1.24-.59h.14c.06,0,.21.06.45.19h.05l.38-.19c.06-.03.14-.05.23-.05.97,0,1.5.67,1.6,2.02.03.28.11.42.23.42.16,0,.38-.29.67-.86.29-.57.9-.86,1.84-.86.67,0,1.01.43,1.01,1.29,0,1.02-.45,1.98-1.36,2.88-.06.12-.11.27-.14.42l-.33.96v.05c0,.09-.07.22-.2.39s-.2.31-.2.43l.05.59-.09.66c0,.3.05.49.16.59.5-.12.86-.33,1.09-.62s.39-.45.48-.48l.23-.09c.14-.23.3-.43.49-.59ZM82.16,253.2c.06-.34.25-.61.57-.79s.51-.36.57-.55c.3-.22.72-.61,1.28-1.17s.83-.91.83-1.03c0-.05-.03-.07-.09-.07h-.05l-.19.12-.42-.05-.45.05-.33-.16-.3.05-.47-.09c-.25,0-.46.05-.64.15s-.52.21-1.03.34-.96.34-1.37.64c-.41.3-.7.46-.89.46-.11.23-.48.57-1.1,1.01-.38.12-.62.4-.73.82-.41.33-.61.52-.61.56l-.16.4c-.12.11-.28.2-.47.27s-.3.23-.33.49-.14.49-.32.7-.27.38-.27.5c0,.77.15,1.15.45,1.15.12,0,.39-.08.79-.25s.63-.28.69-.34.19-.12.38-.19l.45-.23c.06-.06.13-.1.21-.12s.16-.07.23-.15.22-.18.42-.28.36-.24.47-.41c.27-.16.7-.4,1.29-.73l.49-.38c.34-.16.55-.29.63-.4s.23-.22.47-.33Z"/>
    <path class="cls-3" d="M99.5,238.08l.33-.09.23-.23h.05l.21.09h.05c.38,0,.71-.07,1-.22s.54-.25.73-.32c.2-.06.32-.11.37-.14.05-.03.09-.05.12-.05l.38.05c.12,0,.29-.22.5-.67.21-.45.45-.77.71-.97s.53-.59.8-1.15c.06-.08.13-.2.21-.36s.14-.25.19-.25c.23,0,.42-.15.56-.45.47-.55.85-.82,1.15-.82.39,0,.66.38.82,1.12l.23.89s-.04.13-.12.34c-.08.21-.11.42-.11.63,0,.21,0,.35-.02.42s-.04.15-.04.25c0,.12.13.19.4.19.09,0,.26-.06.52-.19l.14-.05c.16.09.29.14.4.14.03,0,.25-.08.67-.23.41-.16.67-.24.79-.26.11-.02.3-.08.56-.19h.28l.19.07c.06,0,.19-.07.39-.2.19-.13.57-.21,1.11-.25l.33-.14h.09c.52,0,.77.23.77.68,0,.09-.08.26-.22.49-.15.23-.27.5-.36.8l-1.08,1.36c-.36.47-.72.7-1.08.7-.06,0-.26-.21-.59-.63,0-.03-.03-.05-.09-.05-.16,0-.32.03-.49.09-.17.06-.31.09-.42.09-.05,0-.46.12-1.24.35l-.56.09c-.06,0-.21.03-.45.09l-1.2.23c-.41.2-.73.59-.96,1.15,0,.03-.08.1-.24.21l-1.05,1.92c-.34.09-.57.3-.68.61l-.09.14c-.17.03-.33.13-.47.29s-.27.29-.4.39l-.42.63c-.17.22-.34.46-.52.71-.17.26-.3.53-.38.82s-.14.46-.19.5-.07.13-.07.26l-.07.19c-.19.19-.28.4-.28.63l.09.38c-.22.75-.33,1.15-.33,1.2,0,.03.02.12.05.26v.14c0,.34-.12.77-.38,1.29l.05.38-.14,1.05c0,.14.05.4.14.77-.06.06-.09.11-.09.14,0,.44.23.92.69,1.44s.69,1.34.69,2.45c0,.09-.02.23-.07.41s-.08.38-.09.59-.14.42-.36.62c-.23.2-.42.3-.58.3-.83,0-1.45-.6-1.85-1.8-.41-1.2-.61-1.98-.61-2.32l.05-.91-.14-.47.14-2.06-.09-.49.54-2.02v-.73s.11-.16.33-.38c0-.03-.03-.05-.09-.05-.09,0-.22.09-.38.28s-.35.37-.59.54l-.19.33s-.09-.06-.19-.09c-.08.03-.34.4-.77,1.1-.33.05-.59.23-.78.56-.19.33-.45.49-.77.49l-.09.05c-.06.45-.28.68-.66.68l-.09.05c-.24.53-.48.79-.73.77-.16.47-.54.79-1.15.96-.09.19-.23.33-.41.42-.18.09-.31.18-.39.26s-.15.12-.21.12c-.2,0-.3-.22-.3-.66,0-.12.05-.26.15-.41s.15-.25.15-.32c0-.03-.08-.12-.23-.28,0-.48.12-.79.38-.91.25-.12.44-.3.56-.54.08-.19.23-.32.47-.4.24-.08.35-.18.35-.3,0-.11.2-.33.61-.66.41-.33.7-.61.89-.86s.34-.36.47-.36l.09-.09c.03-.39.18-.59.45-.59l.23-.14.05-.19.14-.09h.19l.12-.09c.03-.39.21-.7.55-.91s.95-.83,1.84-1.84c.89-1.01,1.39-1.65,1.5-1.93s.31-.66.6-1.14.45-.93.48-1.35c-.03-.06-.08-.12-.14-.19l-1.01.49s-.16-.12-.47-.21c-.23.14-.41.28-.52.42s-.2.21-.26.21l-.33-.05-1.03.12c-.92.08-1.62.27-2.09.56l-.96.28h-.21c-.12,0-.31.08-.56.23l-.54-.05c-.5.27-.87.4-1.1.4-.03,0-.12-.02-.28-.05l-2.39.66c-.19.06-.61.38-1.27.96l-.19.05c-.16,0-.34-.18-.55-.53s-.32-.67-.32-.95c0-1.55,1.33-2.45,3.98-2.7l.96-.38h.05l.26.09h.09c.09,0,.24-.06.45-.18s.66-.26,1.36-.43l.96-.26.3.05c.16,0,.33-.06.53-.19s.49-.21.89-.27.68-.11.83-.18l.38-.09c.06,0,.19-.05.39-.16s.45-.16.76-.16c.05,0,.16.03.35.09Z"/>
    <path class="cls-3" d="M109.16,249.71l.49-.4c.37-.03.58-.23.61-.59s.29-.67.77-.94l.28-.4c.23-.23.88-.54,1.92-.91.27-.16.45-.3.54-.42.03-.03.06-.05.09-.05l.38.09c.2,0,.46-.05.78-.16s.63-.16.92-.16l.98-.05c.06,0,.19.05.39.14s.43.14.71.14c.34,0,.66.16.95.47s.43.6.43.87c0,.48-.25.98-.75,1.48-.5.5-.9.78-1.19.84-.27.27-.47.43-.61.5s-.29.18-.43.33c-.15.15-.27.22-.36.22-.06,0-.11-.02-.14-.06-.03-.04-.08-.06-.14-.06-.25,0-.52.3-.82.91l-.42-.05c-.27.17-.44.36-.52.56s-.24.3-.49.3c-.58.58-.97.87-1.17.87-.03,0-.14-.03-.33-.09-.12.16-.19.32-.19.49,0,.19-.12.3-.37.33l-.3.28-.23-.05-.47.49c-.23,0-.48.08-.72.23-.03.19-.08.43-.14.71-.06.29-.09.45-.09.48,0,.45.41.68,1.24.68l1.12-.16c.3,0,.57-.08.83-.23s.54-.23.83-.23c.09,0,.23-.03.42-.09l.23.09c.11-.23.31-.45.61-.63s.53-.28.7-.28l.23-.14c.06-.19.16-.31.28-.38l.19-.16c.12-.12.24-.19.35-.19h.33l.09-.05c.19-.41.45-.64.79-.71.34-.07.55-.18.63-.34s.24-.25.46-.28.4-.14.55-.32.33-.35.55-.5.37-.27.46-.35.16-.12.22-.12c.09,0,.14.07.14.21s.03.21.09.21.09-.03.09-.09-.02-.14-.05-.23v-.16c0-.23.12-.39.38-.47l1.05-.68c.03-.33.12-.52.27-.57s.26-.12.34-.19.16-.11.26-.11c.2,0,.3.12.3.35l-.12.61.12.63c0,.09-.07.22-.22.39-.15.16-.26.41-.34.75s-.18.52-.3.55h-.14c-.28.3-.5.47-.67.53s-.29.15-.39.29l-.8.91c-.16.16-.29.3-.4.42s-.2.19-.26.19l-.19-.19s-.03-.05-.09-.05c-.16,0-.25.09-.29.28s-.12.35-.25.49c-.47.22-.77.42-.92.61l-.14.05h-.42c-.2,0-.34.15-.42.46-.08.3-.3.48-.67.53s-.63.14-.79.28c-.03.03-.1.06-.21.09s-.33.16-.66.38l-1.97.7c-.16.08-.26.12-.3.12l-.66.09c-.09,0-.19-.06-.28-.19s-.16-.19-.19-.19l-.42.14c-.31.09-.61.14-.89.14-.16,0-.33-.05-.52-.16s-.34-.19-.45-.23c-.45,0-.77-.35-.96-1.05l-.28.05c-.06,0-.27-.55-.63-1.66-.09-.12-.24-.21-.45-.27-.2-.05-.3-.21-.3-.46,0-.7.15-1.18.46-1.42s.47-.43.5-.55l.33-1.22c.06-.05.14-.2.23-.47l.54-.98c.06-.11.2-.38.42-.82ZM114.12,248.3l-.28.14c-.06.03-.25.17-.55.41s-.6.44-.89.59-.59.54-.89,1.16-.46.98-.46,1.08.05.14.14.14l.8-.35c.3-.14.57-.32.83-.54s.63-.48,1.11-.8l.19-.19c.03-.06.18-.18.43-.34s.45-.32.57-.48l.23-.09c.27-.42.54-.68.81-.77s.41-.19.41-.28c0-.19-.15-.28-.45-.28-.12,0-.31.08-.56.23h-.54c-.06,0-.23.09-.52.28l-.4.09Z"/>
    <path class="cls-3" d="M143.83,232.46l.4-.33.47.05c.27,0,.49-.07.68-.21s.34-.22.46-.23.26-.09.42-.23.4-.24.71-.29.54-.15.68-.29.3-.23.48-.27.39-.11.62-.2l2.13-.66s.12.03.26.09h.09c.19,0,.37-.07.55-.22s.39-.22.64-.22c.16,0,.46-.09.91-.28l.14.14c.25-.28.46-.42.63-.42h.14s.17.03.42.09c.39-.12.71-.19.96-.19l.54-.05s.08.02.14.05c.12-.14.3-.23.52-.26h.26l.96-.23.28.09c.19-.16.48-.23.87-.23h.23l.23.05s.18-.05.43-.14.89-.14,1.89-.14l.61.09c.39-.16.6-.23.63-.23l.66.14.26-.09h.09s.11.03.23.09h.05l1.69-.23s.09.02.19.05c.12-.11.22-.16.28-.16l.45.12c.12,0,.34-.09.66-.26l.14.14,1.59-.19.59.05.52-.09c.52,0,.9.14,1.16.41s.39.55.39.83l.09.73-.14.4-.05.47c-.08.19-.2.31-.35.38,0,.03-.07.07-.21.11s-.28.11-.42.2-.6.14-1.38.14c-.39,0-.64-.12-.75-.36s-.23-.38-.35-.41l-1.01-.42s-.12-.05-.28-.05h-.19l-.96.09s-.12-.02-.26-.05c-.2.09-.31.14-.33.14l-1.73-.09-.7.05-.49-.09c-.06,0-.17.02-.33.07s-.48.09-.98.12c-.5.03-.75.19-.75.47,0,.17.07.36.2.56s.2.37.2.49c-.23.33-.35.54-.35.63-.06.05-.17.15-.33.3s-.45.4-.87.74c-.42.34-.71.64-.87.93-.16.28-.34.42-.56.42-.28.27-.48.51-.59.73l-.19.19s-.05.1-.05.21c0,.09-.05.19-.14.28l-.21.56c-.11.05-.43.45-.96,1.22l-.28.14-.28.33h-.33c-.14,0-.21.09-.21.28l.09.68c-.23.2-.42.48-.56.82l-.28.47c-.33.33-.49.51-.49.54,0,.08-.16.41-.47,1.01l-.05.23c0,.27-.55,1.03-1.64,2.3-.16.3-.25.75-.28,1.36-.47.92-.79,1.37-.96,1.34-.03.59-.13,1.08-.29,1.45s-.38.93-.63,1.65-.53,1.25-.81,1.56l-.09.19c-.06.12-.14.25-.23.38-.03.42-.18,1.09-.45,2.02l-.14,1.01-.47,1.31c-.05.09-.07.19-.07.28,0,.06.05.18.15.36s.15.35.15.5c0,.22-.04.39-.12.53s-.12.31-.12.53c0,.48-.26.8-.77.96h-.19l-.49.05c-.66,0-1.25-.31-1.78-.94s-.8-1.48-.8-2.58c0-.06.05-.3.14-.71s.15-.68.16-.81.05-.25.12-.39.09-.32.09-.57c0-.77.19-1.43.57-1.99s.64-.97.76-1.22c.03-.11.09-.18.16-.21-.05-.12-.07-.28-.07-.47,0-.45.2-.82.59-1.1.03-.12.09-.27.16-.43s.24-.56.49-1.2.58-1,.98-1.11c-.02-.03.08-.16.28-.38l-.09-.82c0-.12.14-.34.42-.63l.4-.66c.06-.27.27-.51.61-.73.09-.16.2-.25.3-.28.02-.06.08-.26.2-.59s.37-.74.75-1.23.75-1,1.1-1.54.67-.8.96-.82.45-.18.48-.49l.14-.87c.45-.39.73-.66.82-.82l.33-.38c.06-.22.14-.36.25-.43s.23-.21.39-.43.35-.41.59-.59c.2-.64.66-1.2,1.38-1.66l.38-.4c.27-.38.48-.63.66-.76s.3-.31.39-.53.25-.38.5-.49.38-.23.38-.38c0-.06-.06-.09-.19-.09s-.34.05-.63.14h-.19l-.42.09h-.14l-.4-.09c-.28.09-.5.14-.66.14-.03.03-.13.1-.3.21h-.52l-.28.28-.21.05-.61-.09c-.19,0-.41.09-.68.28,0,.03-.25.09-.76.16s-.99.22-1.44.43-.73.32-.82.32l-.42-.09h-.05c-.2,0-.39.1-.56.3s-.42.33-.75.38h-.28c-.23,0-.55.09-.95.28s-.61.28-.64.28l-.42-.05c-.19.12-.35.21-.48.26s-.26.12-.39.22-.25.18-.38.22c-.13.05-.27.13-.43.26s-.29.19-.39.19h-.09l-.28-.05c-.11,0-.25.1-.42.29-.17.2-.33.32-.48.36-.15.05-.29.12-.42.22s-.27.16-.41.18c-.08.08-.19.25-.33.52s-.32.5-.54.69c-.22.2-.36.35-.43.46s-.14.16-.2.16c-.77,0-1.15-.48-1.15-1.43l.47-1.01c.33-.8.83-1.28,1.5-1.45.17,0,.62-.17,1.34-.52l.91-.4Z"/>
    <path class="cls-3" d="M169.36,256.81l-1.1.96c-.06-.06-.12-.09-.19-.09-.16,0-.35.14-.58.42-.23.28-.39.42-.48.42l-.23-.05c-.39.3-.67.47-.84.52-.17.05-.38.13-.62.26s-.46.2-.66.21-.36.08-.48.2-.43.18-.92.18l-.38-.05c-.2.09-.34.14-.4.14-.12,0-.26-.07-.4-.2s-.29-.21-.46-.22-.33-.12-.5-.33c-.17-.2-.33-.34-.48-.42-.15-.08-.27-.19-.36-.33l-.33-.28c-.27-.19-.52-.53-.77-1.03-.25-.5-.38-.89-.38-1.17v-.09l.05-.45-.05-.52c.06-.06.14-.2.23-.4v-.75l.56-1.88c.03-.08-.03-.18-.19-.3-.16.23-.31.38-.47.42s-.26.16-.32.33-.15.26-.27.26l-.28-.09s-.1.19-.21.48-.3.43-.57.43c-.28,0-.42-.11-.42-.33l.05-.42-.14-.59c0-.12.12-.37.38-.74.25-.37.48-.58.69-.63.21-.05.39-.2.54-.45s.47-.54.97-.88c.28-.06.52-.27.73-.61.22-.17.5-.31.86-.42s.62-.27.8-.48c.18-.21.71-.54,1.6-.98.88-.45,1.53-.67,1.94-.67.12,0,.3-.04.52-.11.22-.07.42-.13.61-.19s.38-.14.59-.26c.2-.12.37-.18.49-.18l.68.23c.5.14.81.24.92.3.03.03.19.1.48.2.29.1.59.24.89.41s.46.49.46.96c-.27.39-.4.6-.4.63,0,.06.18.16.54.28.13.23.31.54.56.91l.26.82.05,1.92-.05.19c-.17.16-.26.26-.26.3l.07.47-.19.66c-.05.2-.12.34-.23.4s-.18.14-.21.23l-.14.19s-.1.18-.2.41c-.1.23-.21.4-.34.53-.12.12-.2.27-.23.45s-.11.3-.23.38-.21.16-.27.25-.14.16-.27.22ZM162.08,257.42l.09.54.05.05h.37l.12.05c.31.06.55.09.7.09.48,0,.87-.12,1.16-.36.29-.24.52-.36.69-.36s.32-.12.43-.35.19-.35.22-.35h.33l.09-.05c0-.36.16-.62.48-.77s.55-.36.68-.62.28-.45.46-.59c.17-.13.29-.31.35-.53l.19-.28c.06-.06.09-.18.09-.35l.44-.84c.09-.39.14-.7.14-.91,0-.33-.17-.59-.5-.77-.33-.19-.5-.55-.5-1.1,0-.36.18-.69.55-1,.37-.3.55-.49.55-.55,0-.09-.05-.14-.14-.14-.05,0-.23.06-.54.19-.11.22-.66.51-1.66.87-.33-.16-.51-.23-.54-.23-.09,0-.19.09-.28.28s-.19.32-.28.4h-.3s-.13.1-.3.3c-.17.2-.39.3-.65.3l-.28.28c.02.25-.14.51-.47.77l-.26.3c-.16.19-.36.41-.61.66l-.42,1.05c-.17.41-.26.71-.26.91-.05.09-.15.19-.32.29s-.25.23-.25.39c0,.03.05.11.16.23s.16.22.16.28l-.09.3-.09.87.23.75Z"/>
    <path class="cls-3" d="M173.38,273.45l-.38.26c-.16.09-.32.14-.49.14-.39,0-.77-.26-1.14-.77s-.55-1.05-.55-1.59c0-.98.1-1.68.29-2.1s.31-.72.34-.93c0-.02.17-.4.5-1.16s.65-1.33.95-1.72.55-.76.75-1.1l.09-.19c.23-.38.46-.63.68-.77,0-.09.3-.42.9-.97s1.17-1.03,1.7-1.42l.23-.33c.38-.23.59-.35.66-.35l1.36-.38c.12-.12.43-.37.91-.73h.19l.63-.19c.34-.16.88-.3,1.6-.43.72-.13,1.14-.29,1.23-.47s.18-.35.25-.5c.07-.16.24-.48.51-.98.06-.27.12-.48.16-.63s.1-.25.15-.28c.05-.03.14-.18.27-.46.12-.27.25-.5.38-.69.03,0,.05-.02.05-.05l-.14-.4c.12-.38.25-.61.39-.69.13-.09.2-.14.2-.18l-.16-.42.4-.87c0-.06-.03-.09-.09-.09-.83.58-1.31.87-1.45.87-.08.11-.25.3-.52.56-.27.09-.44.26-.54.49l-.19.05-.14.23s-.05.07-.16.12c-.11.05-.33.17-.65.38l-.28-.05c-.06,0-.14.16-.23.47-.27.31-.52.5-.76.57-.24.07-.39.15-.46.25l-.19.23-.23-.05c-.33,0-.49.12-.49.38,0,.14-.09.3-.28.49-.12,0-.28.05-.47.14h-.35c-.16.34-.44.55-.84.63l-.68.47-.4.14c-.19.09-.38.21-.56.34s-.51.21-.96.25c-.22-.12-.55-.25-1.01-.36-.45-.12-.77-.88-.96-2.29h-.05c-.12,0-.26.05-.41.14s-.25.14-.32.14c-.38,0-.56-.16-.56-.47,0-.7.27-1.16.8-1.38l.59-.73,1.5-1.48c1.05-1.05,1.75-1.72,2.11-2.02s.75-.59,1.17-.87l1.2-.8c.41-.27.66-.41.75-.43s.19-.07.29-.15c.1-.08.39-.2.86-.35l.42-.19c.88-.3,1.44-.45,1.69-.45l.33.05c.17,0,.34-.06.49-.19.22,0,.56-.17,1.01-.52l.85-.23c.23-.08.43-.12.59-.12h.45c.33,0,.54.26.64.77.1.52.19.77.27.77.03,0,.12-.12.28-.35l.33-.23c.23-.16.38-.23.45-.23.38,0,.61.16.7.47v.05l.09.12c.14.75.21,1.21.21,1.38,0,.75-.16,1.34-.48,1.76-.32.42-.51.72-.57.89-.31,1.27-.62,2.22-.94,2.86-.08.17-.27.62-.56,1.36l-.23.23c-.06.03-.09.08-.09.14l.05.33c-.27.42-.4.76-.4,1.01,0,.14-.13.43-.38.87.03.03.17.11.41.25.24.13.52.38.82.75s.46.64.46.83c0,.05-.09.35-.26.91-.56.42-1.04.63-1.43.63-.16,0-.38-.1-.68-.3l-.14.05v-.09c-.2-.05-.36-.11-.48-.18-.12-.07-.23-.11-.34-.11-.13,0-.19.06-.19.19,0,.06.02.12.05.19-.09.08-.22.2-.38.35,0,.05-.11.28-.33.69-.22.41-.42.69-.59.83-.34.02-.58.27-.7.77s-.27.82-.45.96l-.23-.09c-.53,1.06-1.06,1.83-1.59,2.3-.33.08-.5.14-.5.18s-.02.14-.05.3-.21.42-.56.77-.56.53-.62.53l-.23.05-.14.14c.02.31-.4.81-1.24,1.5-.45.25-.7.42-.73.52-.12.3-.59.65-1.38,1.05l-.45.4c-.2.19-.41.32-.61.4l-.59.21ZM181.84,261.4l-.7.09c-.17-.12-.3-.19-.4-.19-.06,0-.11.05-.14.14-.19.25-.6.46-1.24.63s-1.07.35-1.3.53-.42.28-.57.29-.23.05-.23.09c-.16.12-.27.23-.35.33-.16.06-.31.16-.47.29s-.32.21-.49.25c-.28.61-.48.91-.61.91-.03,0-.11-.02-.23-.05h-.05c-.2.41-.36.64-.47.7-.11.06-.2.15-.28.27-.08.12-.23.25-.46.39-.23.14-.38.38-.46.71-.08.34-.18.56-.29.68s-.19.38-.22.79l-.14.33c-.05.09-.11.36-.2.81-.08.45-.13.68-.13.69,0,.22.09.41.28.59.06-.08.2-.13.4-.16l1.38-.56s.22-.18.52-.43.56-.43.79-.5.43-.22.62-.42c.12-.19.28-.34.46-.47s.29-.28.32-.47c.36-.31.69-.61.98-.88s.49-.5.57-.68.22-.33.41-.46l.09-.3s.1-.04.2-.06.27-.28.5-.76l.63-1.05c.38-.38.68-.85.91-1.43l.33-.28c.06-.03.09-.1.09-.21l-.05-.14ZM181.42,253.92l.28-.4c.09-.12.25-.22.48-.28s.41-.2.55-.4c.38-.53.82-.92,1.34-1.17l.23-.16c.23-.45.45-.7.63-.74s.35-.18.49-.42.21-.44.21-.6c0-.06-.05-.09-.14-.09-.22,0-.41.06-.57.19s-.28.19-.34.19l-.47-.05c-.28.16-.67.34-1.17.56l-.42.35c-.19.12-.36.2-.5.23s-.26.13-.34.29-.18.25-.3.25l-.19.09c-.06.06-.24.09-.54.09-.16.09-.32.23-.48.4s-.26.26-.29.26c-.36.39-.67.63-.93.73s-.43.23-.5.4c-.3.08-.55.25-.75.53s-.39.46-.55.56-.31.23-.43.39l-.23.19c-.09.06-.22.27-.39.62s-.25.6-.25.74c0,.09.05.14.16.14.16,0,.45-.11.88-.34s.71-.4.83-.53.21-.19.26-.19l.89.05c.09-.2.25-.34.48-.4s.4-.2.53-.4.48-.42,1.05-.66l.26-.42h.23Z"/>
    <path class="cls-3" d="M195.13,249.71l.49-.4c.37-.03.58-.23.61-.59s.29-.67.77-.94l.28-.4c.23-.23.88-.54,1.92-.91.27-.16.45-.3.54-.42.03-.03.06-.05.09-.05l.38.09c.2,0,.46-.05.78-.16s.63-.16.92-.16l.98-.05c.06,0,.19.05.39.14s.43.14.71.14c.34,0,.66.16.95.47s.43.6.43.87c0,.48-.25.98-.75,1.48-.5.5-.9.78-1.19.84-.27.27-.47.43-.61.5s-.29.18-.43.33c-.15.15-.27.22-.36.22-.06,0-.11-.02-.14-.06-.03-.04-.08-.06-.14-.06-.25,0-.52.3-.82.91l-.42-.05c-.27.17-.44.36-.52.56s-.24.3-.49.3c-.58.58-.97.87-1.17.87-.03,0-.14-.03-.33-.09-.12.16-.19.32-.19.49,0,.19-.12.3-.37.33l-.3.28-.23-.05-.47.49c-.23,0-.48.08-.72.23-.03.19-.08.43-.14.71-.06.29-.09.45-.09.48,0,.45.41.68,1.24.68l1.12-.16c.3,0,.57-.08.83-.23s.54-.23.83-.23c.09,0,.23-.03.42-.09l.23.09c.11-.23.31-.45.61-.63s.53-.28.7-.28l.23-.14c.06-.19.16-.31.28-.38l.19-.16c.12-.12.24-.19.35-.19h.33l.09-.05c.19-.41.45-.64.79-.71.34-.07.55-.18.63-.34s.24-.25.46-.28.4-.14.55-.32.33-.35.55-.5.37-.27.46-.35.16-.12.22-.12c.09,0,.14.07.14.21s.03.21.09.21.09-.03.09-.09-.02-.14-.05-.23v-.16c0-.23.12-.39.38-.47l1.05-.68c.03-.33.12-.52.27-.57s.26-.12.34-.19.16-.11.26-.11c.2,0,.3.12.3.35l-.12.61.12.63c0,.09-.07.22-.22.39-.15.16-.26.41-.34.75s-.18.52-.3.55h-.14c-.28.3-.5.47-.67.53s-.29.15-.39.29l-.8.91c-.16.16-.29.3-.4.42s-.2.19-.26.19l-.19-.19s-.03-.05-.09-.05c-.16,0-.25.09-.29.28s-.12.35-.25.49c-.47.22-.77.42-.92.61l-.14.05h-.42c-.2,0-.34.15-.42.46-.08.3-.3.48-.67.53s-.63.14-.79.28c-.03.03-.1.06-.21.09s-.33.16-.66.38l-1.97.7c-.16.08-.26.12-.3.12l-.66.09c-.09,0-.19-.06-.28-.19s-.16-.19-.19-.19l-.42.14c-.31.09-.61.14-.89.14-.16,0-.33-.05-.52-.16s-.34-.19-.45-.23c-.45,0-.77-.35-.96-1.05l-.28.05c-.06,0-.27-.55-.63-1.66-.09-.12-.24-.21-.45-.27-.2-.05-.3-.21-.3-.46,0-.7.15-1.18.46-1.42s.47-.43.5-.55l.33-1.22c.06-.05.14-.2.23-.47l.54-.98c.06-.11.2-.38.42-.82ZM200.08,248.3l-.28.14c-.06.03-.25.17-.55.41s-.6.44-.89.59-.59.54-.89,1.16-.46.98-.46,1.08.05.14.14.14l.8-.35c.3-.14.57-.32.83-.54s.63-.48,1.11-.8l.19-.19c.03-.06.18-.18.43-.34s.45-.32.57-.48l.23-.09c.27-.42.54-.68.81-.77s.41-.19.41-.28c0-.19-.15-.28-.45-.28-.12,0-.31.08-.56.23h-.54c-.06,0-.23.09-.52.28l-.4.09Z"/>
    <path class="cls-3" d="M214.28,238.08l.33-.09.23-.23h.05l.21.09h.05c.38,0,.71-.07,1-.22s.54-.25.73-.32c.2-.06.32-.11.37-.14.05-.03.09-.05.12-.05l.38.05c.12,0,.29-.22.5-.67.21-.45.45-.77.71-.97s.53-.59.8-1.15c.06-.08.13-.2.21-.36s.14-.25.19-.25c.23,0,.42-.15.56-.45.47-.55.85-.82,1.15-.82.39,0,.66.38.82,1.12l.23.89s-.04.13-.12.34c-.08.21-.11.42-.11.63,0,.21,0,.35-.02.42s-.04.15-.04.25c0,.12.13.19.4.19.09,0,.26-.06.52-.19l.14-.05c.16.09.29.14.4.14.03,0,.25-.08.67-.23.41-.16.67-.24.79-.26.11-.02.3-.08.56-.19h.28l.19.07c.06,0,.19-.07.39-.2.19-.13.57-.21,1.11-.25l.33-.14h.09c.52,0,.77.23.77.68,0,.09-.08.26-.22.49-.15.23-.27.5-.36.8l-1.08,1.36c-.36.47-.72.7-1.08.7-.06,0-.26-.21-.59-.63,0-.03-.03-.05-.09-.05-.16,0-.32.03-.49.09-.17.06-.31.09-.42.09-.05,0-.46.12-1.24.35l-.56.09c-.06,0-.21.03-.45.09l-1.2.23c-.41.2-.73.59-.96,1.15,0,.03-.08.1-.24.21l-1.05,1.92c-.34.09-.57.3-.68.61l-.09.14c-.17.03-.33.13-.47.29s-.27.29-.4.39l-.42.63c-.17.22-.34.46-.52.71-.17.26-.3.53-.38.82s-.14.46-.19.5-.07.13-.07.26l-.07.19c-.19.19-.28.4-.28.63l.09.38c-.22.75-.33,1.15-.33,1.2,0,.03.02.12.05.26v.14c0,.34-.12.77-.38,1.29l.05.38-.14,1.05c0,.14.05.4.14.77-.06.06-.09.11-.09.14,0,.44.23.92.69,1.44s.69,1.34.69,2.45c0,.09-.02.23-.07.41s-.08.38-.09.59-.14.42-.36.62c-.23.2-.42.3-.58.3-.83,0-1.45-.6-1.85-1.8-.41-1.2-.61-1.98-.61-2.32l.05-.91-.14-.47.14-2.06-.09-.49.54-2.02v-.73s.11-.16.33-.38c0-.03-.03-.05-.09-.05-.09,0-.22.09-.38.28s-.35.37-.59.54l-.19.33s-.09-.06-.19-.09c-.08.03-.34.4-.77,1.1-.33.05-.59.23-.78.56-.19.33-.45.49-.77.49l-.09.05c-.06.45-.28.68-.66.68l-.09.05c-.24.53-.48.79-.73.77-.16.47-.54.79-1.15.96-.09.19-.23.33-.41.42-.18.09-.31.18-.39.26s-.15.12-.21.12c-.2,0-.3-.22-.3-.66,0-.12.05-.26.15-.41s.15-.25.15-.32c0-.03-.08-.12-.23-.28,0-.48.12-.79.38-.91.25-.12.44-.3.56-.54.08-.19.23-.32.47-.4.24-.08.35-.18.35-.3,0-.11.2-.33.61-.66.41-.33.7-.61.89-.86s.34-.36.47-.36l.09-.09c.03-.39.18-.59.45-.59l.23-.14.05-.19.14-.09h.19l.12-.09c.03-.39.21-.7.55-.91s.95-.83,1.84-1.84c.89-1.01,1.39-1.65,1.5-1.93s.31-.66.6-1.14.45-.93.48-1.35c-.03-.06-.08-.12-.14-.19l-1.01.49s-.16-.12-.47-.21c-.23.14-.41.28-.52.42s-.2.21-.26.21l-.33-.05-1.03.12c-.92.08-1.62.27-2.09.56l-.96.28h-.21c-.12,0-.31.08-.56.23l-.54-.05c-.5.27-.87.4-1.1.4-.03,0-.12-.02-.28-.05l-2.39.66c-.19.06-.61.38-1.27.96l-.19.05c-.16,0-.34-.18-.55-.53s-.32-.67-.32-.95c0-1.55,1.33-2.45,3.98-2.7l.96-.38h.05l.26.09h.09c.09,0,.24-.06.45-.18s.66-.26,1.36-.43l.96-.26.3.05c.16,0,.33-.06.53-.19s.49-.21.89-.27.68-.11.83-.18l.38-.09c.06,0,.19-.05.39-.16s.45-.16.76-.16c.05,0,.16.03.35.09Z"/>
    <path class="cls-3" d="M221.42,250.71l.19-.26c.41-.09.67-.25.78-.47.05-.11.44-.52,1.18-1.22.74-.7,1.15-1.08,1.22-1.12.5-.91.8-1.59.91-2.04.19-.09.28-.2.28-.33l.19-.38.21-.05.09-.09v-.21c0-.28.3-.94.91-1.97.61-1.27.94-1.96.98-2.1s.14-.33.28-.59.35-.75.64-1.49c.29-.73.74-1.5,1.35-2.3.06-.03.16-.21.28-.53.12-.32.32-.64.59-.95l.28-.49.49-.82c.23-.39.45-.7.64-.93.2-.23.34-.46.45-.71.1-.25.22-.43.36-.54s.28-.31.43-.6c.15-.29.38-.43.69-.43.61,0,1.05.25,1.32.75.27.5.41.94.41,1.31,0,.05-.09.38-.28,1.01l-.35,2.11c-.31.16-.47.34-.47.54,0,.83-.32,1.69-.96,2.58-.06.06-.11.27-.15.61-.04.34-.18.62-.41.84s-.45.59-.63,1.1l-2.18,3.12-.19.19c-.09.06-.2.2-.33.4l-.38-.12c-.42,0-.63.13-.63.4,0,.09.03.22.09.38v.05s-.58.84-1.73,2.46c-.06.09-.17.4-.33.91l-.33.7c-.33.45-.56.89-.69,1.32-.13.43-.31.78-.53,1.04-.31.7-.47,1.07-.47,1.1,0,.09.05.14.14.14s.32-.23.67-.7.64-.78.87-.94c.23-.16.42-.38.57-.66l.23-.16c.06-.03.2-.12.4-.28l.24.05c.12-.09.2-.2.23-.33s.08-.22.14-.28c.41-.05.66-.2.76-.45.1-.25.22-.38.36-.38.12,0,.29-.14.49-.43.2-.29.49-.52.86-.7.37-.18.64-.34.82-.48.18-.14.54-.31,1.09-.5s.92-.29,1.1-.29h.14l.19.05.35-.05c.55,0,1.09.15,1.64.46.55.3.78.78.7,1.42l-.19,1.45-.26,1.15c-.03.19-.16.6-.38,1.24-.22.64-.33,1.01-.33,1.1l-.09.45.09.61-.05.49c0,.16.08.23.23.23.06,0,.23-.14.51-.42.17.03.33-.06.49-.28s.37-.45.63-.68c0-.06.1-.12.3-.18s.48-.24.84-.55c.06-.14.37-.44.91-.9s1.07-.82,1.57-1.07l.14-.19c.26-.27.5-.4.72-.4s.33.12.33.35c0,.16-.04.32-.12.49s-.13.39-.16.67-.19.67-.47,1.18l-.09.23c-.11.27-.24.42-.4.47-.16.05-.32.18-.5.39-.18.21-.55.41-1.11.6-.25.47-.45.7-.58.7l-.42-.19c-.33.27-.49.54-.49.82-.41.34-.65.57-.73.68l-.47-.05c-.12,0-.19.17-.19.52,0,.03-.16.14-.48.32-.32.18-.57.34-.74.48-.17.14-.54.21-1.1.21-.06,0-.16-.05-.28-.16-.12-.11-.31-.2-.55-.28-.24-.08-.41-.26-.5-.55s-.2-.52-.3-.68c-.11-.16-.16-.29-.16-.39l.05-.47-.12-.49.21-.33c-.09-.22-.14-.37-.14-.45l.23-1.43c.17-1.03.31-1.7.42-2.02.03-.03.05-.12.05-.28l-.05-.59.05-.33c0-.23-.08-.36-.23-.38-.16-.02-.25-.05-.28-.12-.2-.09-.32-.14-.35-.14-.12,0-.23.1-.33.29s-.22.37-.38.53l-.59-.09v.05c0,.12-.21.37-.63.73-.39.09-.73.3-1.01.61-.12,0-.34.12-.65.36-.3.24-.5.38-.6.41l-.19.38-.38.12c-.11.31-.37.52-.77.61l-.23.45c-.33.03-.56.2-.68.5s-.22.46-.28.46c-.03,0-.08-.02-.15-.06s-.14-.06-.2-.06c-.34,0-.53.26-.56.77,0,.06-.32.43-.96,1.1s-.99,1.02-1.03,1.03-.14.18-.27.48c-.13.3-.32.53-.55.68s-.41.27-.53.36-.21.14-.27.14c-.33,0-.59-.23-.8-.7s-.3-.71-.3-.73l.14-.49-.05-.42s.1-.33.29-.95.42-1.1.67-1.45c.25-.35.45-.93.59-1.72-.7.47-1.13.7-1.27.7-.31,0-.47-.2-.47-.61,0-.75.24-1.42.73-2.02Z"/>
    <path class="cls-3" d="M245.05,249.71l.49-.4c.37-.03.58-.23.61-.59s.29-.67.77-.94l.28-.4c.23-.23.88-.54,1.92-.91.27-.16.45-.3.54-.42.03-.03.06-.05.09-.05l.38.09c.2,0,.46-.05.78-.16s.63-.16.92-.16l.98-.05c.06,0,.19.05.39.14s.43.14.71.14c.34,0,.66.16.95.47s.43.6.43.87c0,.48-.25.98-.75,1.48-.5.5-.9.78-1.19.84-.27.27-.47.43-.61.5s-.29.18-.43.33c-.15.15-.27.22-.36.22-.06,0-.11-.02-.14-.06-.03-.04-.08-.06-.14-.06-.25,0-.52.3-.82.91l-.42-.05c-.27.17-.44.36-.52.56s-.24.3-.49.3c-.58.58-.97.87-1.17.87-.03,0-.14-.03-.33-.09-.12.16-.19.32-.19.49,0,.19-.12.3-.37.33l-.3.28-.23-.05-.47.49c-.23,0-.48.08-.72.23-.03.19-.08.43-.14.71-.06.29-.09.45-.09.48,0,.45.41.68,1.24.68l1.12-.16c.3,0,.57-.08.83-.23s.54-.23.83-.23c.09,0,.23-.03.42-.09l.23.09c.11-.23.31-.45.61-.63s.53-.28.7-.28l.23-.14c.06-.19.16-.31.28-.38l.19-.16c.12-.12.24-.19.35-.19h.33l.09-.05c.19-.41.45-.64.79-.71.34-.07.55-.18.63-.34s.24-.25.46-.28.4-.14.55-.32.33-.35.55-.5.37-.27.46-.35.16-.12.22-.12c.09,0,.14.07.14.21s.03.21.09.21.09-.03.09-.09-.02-.14-.05-.23v-.16c0-.23.12-.39.38-.47l1.05-.68c.03-.33.12-.52.27-.57s.26-.12.34-.19.16-.11.26-.11c.2,0,.3.12.3.35l-.12.61.12.63c0,.09-.07.22-.22.39-.15.16-.26.41-.34.75s-.18.52-.3.55h-.14c-.28.3-.5.47-.67.53s-.29.15-.39.29l-.8.91c-.16.16-.29.3-.4.42s-.2.19-.26.19l-.19-.19s-.03-.05-.09-.05c-.16,0-.25.09-.29.28s-.12.35-.25.49c-.47.22-.77.42-.92.61l-.14.05h-.42c-.2,0-.34.15-.42.46-.08.3-.3.48-.67.53s-.63.14-.79.28c-.03.03-.1.06-.21.09s-.33.16-.66.38l-1.97.7c-.16.08-.26.12-.3.12l-.66.09c-.09,0-.19-.06-.28-.19s-.16-.19-.19-.19l-.42.14c-.31.09-.61.14-.89.14-.16,0-.33-.05-.52-.16s-.34-.19-.45-.23c-.45,0-.77-.35-.96-1.05l-.28.05c-.06,0-.27-.55-.63-1.66-.09-.12-.24-.21-.45-.27-.2-.05-.3-.21-.3-.46,0-.7.15-1.18.46-1.42s.47-.43.5-.55l.33-1.22c.06-.05.14-.2.23-.47l.54-.98c.06-.11.2-.38.42-.82ZM250.01,248.3l-.28.14c-.06.03-.25.17-.55.41s-.6.44-.89.59-.59.54-.89,1.16-.46.98-.46,1.08.05.14.14.14l.8-.35c.3-.14.57-.32.83-.54s.63-.48,1.11-.8l.19-.19c.03-.06.18-.18.43-.34s.45-.32.57-.48l.23-.09c.27-.42.54-.68.81-.77s.41-.19.41-.28c0-.19-.15-.28-.45-.28-.12,0-.31.08-.56.23h-.54c-.06,0-.23.09-.52.28l-.4.09Z"/>
    <path class="cls-3" d="M261.82,247.88l.35-.09.14-.3c.77-.45,1.31-.88,1.64-1.29.03-.06.1-.12.21-.19.11-.06.23-.17.35-.33.58-.58,1.27-.87,2.06-.87.94,0,1.44.57,1.5,1.71l.14.35c.12.22.3.66.53,1.34.23.67.34,1.09.34,1.24,0,.42-.13.84-.4,1.27-.22.11-.74.7-1.57,1.76l-.23.16c-.13.28-.29.56-.49.84-.31.11-.47.23-.47.35v.42s-.04.09-.11.19-.17.27-.29.54l-.19.28c-.06.06-.13.19-.19.39-.06.2-.15.37-.27.53s-.18.28-.18.38c0,.23.3.35.91.35.03,0,.15-.05.35-.14l.33.09s.11-.05.23-.15c.12-.1.32-.18.57-.25s.48-.16.68-.28c.19-.12.43-.23.7-.33s.54-.25.79-.46.5-.36.74-.46.47-.24.68-.43.45-.38.71-.55.69-.55,1.27-1.12c.38-.3.63-.46.77-.49.03,0,.17-.21.41-.62s.52-.62.83-.62c.33,0,.49.16.49.47,0,.17-.08.34-.23.49v.14l.05.38s.05.12.05.21c0,.06-.06.16-.18.28s-.2.29-.25.48-.2.32-.45.39c-.09.34-.21.54-.36.59s-.36.2-.62.47-.64.58-1.12.94-.82.64-1,.83c-.18.2-.3.29-.36.29-.03,0-.09-.03-.19-.09s-.16-.09-.19-.09c-.09,0-.16.11-.19.33l-.09.23c-.2.12-.32.19-.35.19l-.14-.05h-.09c-.19,0-.28.07-.28.21l.14.23v.05c0,.22-.12.33-.38.33-.17,0-.67.29-1.5.87l-.68.14-.56.3c-.19-.11-.3-.16-.35-.16l-.38.12-.68.05s-.3-.16-.86-.47c-.55-.31-.89-.62-1-.94s-.25-.63-.42-.95-.26-.54-.26-.67c0-.75.06-1.29.19-1.61s.2-.56.23-.71.12-.32.27-.5.27-.47.36-.88c.45-.91.77-1.46.94-1.66s.3-.45.4-.75l.3-.42s.08-.15.14-.36.14-.33.23-.36c.12-.22.19-.36.19-.42,0-.45-.2-.68-.61-.68-.08,0-.16.08-.26.25s-.31.32-.64.48-.54.27-.62.35-.25.18-.5.29-.48.3-.67.55l-.4.19c-.13.3-.24.46-.33.49s-.38.11-.87.23c-.03.02-.11.11-.23.28s-.3.26-.54.26c-.19.19-.38.41-.56.66-.06,0-.23.06-.49.19l-.47.12c-.12.09-.26.24-.41.45s-.43.3-.83.3c-.23,0-.35-.19-.35-.56,0-.77.27-1.38.81-1.83s.93-.7,1.18-.73.41-.12.47-.28.21-.29.46-.39.52-.33.84-.68.67-.59,1.04-.71l.28-.33Z"/>
  </g>
</svg>