<?xml version="1.0" encoding="UTF-8"?>
<svg id="Logo" xmlns="http://www.w3.org/2000/svg" version="1.1" viewBox="0 0 288 172.8">
  <!-- Generator: Adobe Illustrator 29.8.9, SVG Export Plug-In . SVG Version: 2.1.1 Build 1)  -->
  <defs>
    <style>
      .st0 {
        fill: #231f20;
      }
    </style>
  </defs>
  <path class="st0" d="M207.23,14.4l-63.12,63.12,8.88,8.88-8.88,8.88,63.12,63.12,72-72L207.23,14.4ZM261,86.17l.23.23-.23.23v-.47ZM254.87,92.76l-41.5,41.5v-41.5h41.5ZM213.37,80.04v-41.51l41.5,41.51h-41.5ZM200.63,39v94.8l-47.4-47.4,47.4-47.4Z"/>
  <path class="st0" d="M144.12,77.52L81,14.4,9,86.4l72,72,63.12-63.12,8.88-8.88-8.88-8.88ZM74.63,134.04l-41.27-41.27h41.27v41.27ZM74.63,80.04h-41.27l41.27-41.27v41.27ZM87.37,134.03V38.76l47.63,47.64-47.63,47.63Z"/>
</svg>