<?xml version="1.0" encoding="UTF-8"?>
<svg id="Logo" xmlns="http://www.w3.org/2000/svg" version="1.1" viewBox="0 0 720 172.8">
  <!-- Generator: Adobe Illustrator 29.8.9, SVG Export Plug-In . SVG Version: 2.1.1 Build 1)  -->
  <defs>
    <style>
      .st0 {
        font-family: SegoeUI-Bold, 'Segoe UI';
        font-size: 96px;
        font-weight: 700;
      }

      .st0, .st1 {
        fill: #263171;
      }

      .st2 {
        fill: #743694;
      }
    </style>
  </defs>
  <path class="st2" d="M222.97,14.4l-63.12,63.12,8.88,8.88-8.88,8.88,63.12,63.12,72-72L222.97,14.4ZM276.73,86.17l.23.23-.23.23v-.47ZM270.6,92.76l-41.5,41.5v-41.5h41.5ZM229.1,80.04v-41.51l41.5,41.51h-41.5ZM216.37,39v94.8l-47.4-47.4,47.4-47.4Z"/>
  <path class="st1" d="M159.85,77.52L96.73,14.4,24.73,86.4l72,72,63.12-63.12,8.88-8.88-8.88-8.88ZM90.37,134.04l-41.27-41.27h41.27v41.27ZM90.37,80.04h-41.27l41.27-41.27v41.27ZM103.1,134.03V38.76l47.63,47.64-47.63,47.63Z"/>
  <text class="st0" transform="translate(318.97 119.7)"><tspan x="0" y="0">Gensyn</tspan></text>
</svg>